<?xml version="1.0" standalone="no"?>
<!DOCTYPE svg PUBLIC "-//W3C//DTD SVG 20010904//EN"
 "http://www.w3.org/TR/2001/REC-SVG-20010904/DTD/svg10.dtd">
<svg version="1.0" xmlns="http://www.w3.org/2000/svg"
 width="200.000000pt" height="200.000000pt" viewBox="0 0 200.000000 200.000000"
 preserveAspectRatio="xMidYMid meet">
<metadata>
Created by potrace 1.11, written by Peter Selinger 2001-2013
</metadata>
<g transform="translate(0.000000,200.000000) scale(0.100000,-0.100000)"
fill="#000000" stroke="none">
<path d="M564 1316 c-72 -34 -121 -101 -131 -181 -7 -59 21 -146 59 -186 55
-57 96 -69 256 -69 l142 0 0 133 c0 164 -9 197 -68 256 -74 74 -165 90 -258
47z"/>
<path d="M1090 1005 l0 -105 30 0 c31 0 32 2 33 78 0 21 1 22 18 6 18 -16 20
-16 39 1 20 18 20 17 20 -34 0 -51 0 -51 30 -49 l30 2 0 103 0 103 -30 0 c-24
0 -35 -7 -48 -30 -21 -37 -27 -37 -42 0 -10 25 -18 30 -46 30 l-34 0 0 -105z"/>
<path d="M1329 1108 c0 -2 -2 -20 -4 -40 -2 -29 4 -47 25 -77 16 -21 30 -49
32 -62 2 -18 10 -24 31 -25 22 -1 29 4 34 25 3 14 17 42 30 61 15 23 23 49 23
77 0 41 -1 43 -30 43 -29 0 -36 -10 -31 -48 1 -7 -5 -22 -13 -33 l-14 -21 -11
20 c-6 12 -11 34 -11 51 0 28 -3 31 -30 31 -16 0 -30 -1 -31 -2z"/>
<path d="M405 872 c-53 -6 -65 -26 -65 -108 0 -64 3 -75 22 -88 28 -20 108
-21 133 -2 14 10 19 29 21 82 5 101 -19 126 -111 116z m43 -102 c4 -48 -10
-72 -30 -52 -16 16 -18 85 -4 94 21 14 31 1 34 -42z"/>
<path d="M100 770 c0 -84 3 -102 16 -107 31 -12 49 11 46 57 -2 43 -2 43 18
25 19 -17 21 -17 39 -1 19 18 20 17 23 -30 3 -46 5 -49 31 -50 18 -1 27 4 28
15 3 50 4 168 1 179 -2 6 -17 12 -32 12 -21 0 -33 -8 -48 -32 l-21 -32 -18 32
c-14 26 -24 32 -50 32 l-33 0 0 -100z"/>
<path d="M550 817 c0 -33 8 -75 21 -105 20 -49 23 -51 60 -50 21 0 45 5 53 12
21 16 44 94 42 146 -1 43 -2 45 -33 48 l-33 3 0 -50 c0 -27 -5 -62 -11 -78
l-11 -28 -10 25 c-5 14 -11 48 -12 75 -1 49 -2 50 -34 53 l-32 3 0 -54z"/>
<path d="M760 844 c0 -17 6 -28 19 -31 14 -4 18 -13 17 -41 -2 -41 -13 -65
-26 -57 -10 6 -20 -29 -11 -43 3 -6 37 -10 74 -10 64 1 67 2 67 25 0 16 -7 27
-20 30 -15 4 -20 14 -20 42 0 38 11 64 26 62 5 -1 10 10 12 24 3 25 2 25 -67
25 -70 0 -71 0 -71 -26z"/>
<path d="M938 858 c-4 -11 -3 -166 1 -191 0 -4 34 -6 74 -5 69 3 72 4 75 29 3
24 0 26 -30 27 -52 0 -58 1 -58 12 0 6 13 10 29 10 21 0 32 6 36 21 9 26 4 30
-34 31 -40 1 -35 23 5 24 51 2 54 3 54 29 0 24 -2 25 -74 25 -50 0 -75 -4 -78
-12z"/>
<path d="M1188 858 c-4 -11 -3 -167 1 -190 0 -4 37 -7 80 -6 l79 1 4 49 c3 52
-4 63 -37 63 -14 0 -21 -9 -25 -30 -3 -17 -9 -29 -13 -27 -4 1 -11 2 -17 2 -6
0 -10 32 -10 75 l0 75 -29 0 c-16 0 -31 -6 -33 -12z"/>
<path d="M1380 844 c0 -18 6 -28 20 -31 18 -5 21 -12 18 -52 -2 -38 -6 -45
-21 -43 -15 3 -18 -2 -15 -25 3 -28 4 -28 71 -29 67 -1 67 -1 67 27 0 18 -6
29 -17 31 -12 2 -17 15 -19 46 -1 38 2 44 22 41 12 -1 22 23 17 42 -5 16 -15
19 -74 19 -68 0 -69 -1 -69 -26z"/>
<path d="M1578 863 c-10 -2 -18 -5 -18 -6 -11 -52 -10 -81 6 -98 9 -10 27 -19
38 -19 12 0 28 -5 36 -10 12 -8 8 -10 -15 -11 -68 -3 -70 -4 -73 -30 -3 -24
-1 -25 50 -27 29 -1 65 4 81 10 23 9 27 16 27 53 0 49 -14 65 -59 68 -17 1
-31 5 -31 10 0 7 3 8 50 10 19 2 26 8 28 30 3 27 2 27 -50 26 -29 -1 -61 -3
-70 -6z"/>
<path d="M1730 840 c0 -27 3 -30 25 -26 24 4 24 3 27 -72 l3 -77 30 0 30 0 5
75 c4 67 7 75 25 75 14 0 21 8 23 28 l3 27 -85 0 -86 0 0 -30z"/>
</g>
</svg>
